<mxfile host="app.diagrams.net" modified="2023-05-29T17:09:21.223Z" agent="Mozilla/5.0 (Macintosh; Intel Mac OS X 10_15_7) AppleWebKit/537.36 (KHTML, like Gecko) Chrome/113.0.0.0 Safari/537.36" etag="NlV-pXtm7WVaFrivfe6n" version="21.3.5" type="device">
  <diagram name="Pagina-1" id="lFd6tQRl5AZQ2QVCQbo3">
    <mxGraphModel dx="6066" dy="1928" grid="1" gridSize="10" guides="1" tooltips="1" connect="1" arrows="1" fold="1" page="1" pageScale="1" pageWidth="827" pageHeight="1169" math="0" shadow="0">
      <root>
        <mxCell id="0" />
        <mxCell id="1" parent="0" />
        <mxCell id="UJGFXo48ONYX7lxH1EYi-98" style="edgeStyle=orthogonalEdgeStyle;rounded=0;orthogonalLoop=1;jettySize=auto;html=1;entryX=0.5;entryY=1;entryDx=0;entryDy=0;exitX=0.713;exitY=1.049;exitDx=0;exitDy=0;exitPerimeter=0;" edge="1" parent="1" source="UJGFXo48ONYX7lxH1EYi-14" target="UJGFXo48ONYX7lxH1EYi-78">
          <mxGeometry relative="1" as="geometry">
            <Array as="points">
              <mxPoint x="-930" y="200" />
              <mxPoint x="-880" y="200" />
              <mxPoint x="-880" y="650" />
              <mxPoint x="-1423" y="650" />
            </Array>
          </mxGeometry>
        </mxCell>
        <mxCell id="UJGFXo48ONYX7lxH1EYi-13" value="Studenti" style="shape=table;startSize=40;container=1;collapsible=0;childLayout=tableLayout;strokeColor=default;fontSize=18;rounded=1;" vertex="1" parent="1">
          <mxGeometry x="-1590" y="50" width="926" height="89.99999999999989" as="geometry" />
        </mxCell>
        <mxCell id="UJGFXo48ONYX7lxH1EYi-14" value="" style="shape=tableRow;horizontal=0;startSize=0;swimlaneHead=0;swimlaneBody=0;strokeColor=inherit;top=0;left=0;bottom=0;right=0;collapsible=0;dropTarget=0;fillColor=none;points=[[0,0.5],[1,0.5]];portConstraint=eastwest;fontSize=18;" vertex="1" parent="UJGFXo48ONYX7lxH1EYi-13">
          <mxGeometry y="40" width="926" height="50" as="geometry" />
        </mxCell>
        <mxCell id="UJGFXo48ONYX7lxH1EYi-15" value="id" style="shape=partialRectangle;html=1;whiteSpace=wrap;connectable=1;strokeColor=inherit;overflow=hidden;fillColor=none;top=0;left=0;bottom=0;right=0;pointerEvents=1;fontSize=18;movable=1;resizable=1;rotatable=1;deletable=1;editable=1;locked=0;" vertex="1" parent="UJGFXo48ONYX7lxH1EYi-14">
          <mxGeometry width="56" height="50" as="geometry">
            <mxRectangle width="56" height="50" as="alternateBounds" />
          </mxGeometry>
        </mxCell>
        <mxCell id="UJGFXo48ONYX7lxH1EYi-16" value="nome_studente" style="shape=partialRectangle;html=1;whiteSpace=wrap;connectable=0;strokeColor=inherit;overflow=hidden;fillColor=none;top=0;left=0;bottom=0;right=0;pointerEvents=1;fontSize=18;" vertex="1" parent="UJGFXo48ONYX7lxH1EYi-14">
          <mxGeometry x="56" width="174" height="50" as="geometry">
            <mxRectangle width="174" height="50" as="alternateBounds" />
          </mxGeometry>
        </mxCell>
        <mxCell id="UJGFXo48ONYX7lxH1EYi-17" value="cognome_studente" style="shape=partialRectangle;html=1;whiteSpace=wrap;connectable=0;strokeColor=inherit;overflow=hidden;fillColor=none;top=0;left=0;bottom=0;right=0;pointerEvents=1;fontSize=18;" vertex="1" parent="UJGFXo48ONYX7lxH1EYi-14">
          <mxGeometry x="230" width="174" height="50" as="geometry">
            <mxRectangle width="174" height="50" as="alternateBounds" />
          </mxGeometry>
        </mxCell>
        <mxCell id="UJGFXo48ONYX7lxH1EYi-18" value="matricola_studente" style="shape=partialRectangle;html=1;whiteSpace=wrap;connectable=0;strokeColor=inherit;overflow=hidden;fillColor=none;top=0;left=0;bottom=0;right=0;pointerEvents=1;fontSize=18;" vertex="1" parent="UJGFXo48ONYX7lxH1EYi-14">
          <mxGeometry x="404" width="174" height="50" as="geometry">
            <mxRectangle width="174" height="50" as="alternateBounds" />
          </mxGeometry>
        </mxCell>
        <mxCell id="UJGFXo48ONYX7lxH1EYi-19" value="id_corso" style="shape=partialRectangle;html=1;whiteSpace=wrap;connectable=0;strokeColor=inherit;overflow=hidden;fillColor=none;top=0;left=0;bottom=0;right=0;pointerEvents=1;fontSize=18;" vertex="1" parent="UJGFXo48ONYX7lxH1EYi-14">
          <mxGeometry x="578" width="174" height="50" as="geometry">
            <mxRectangle width="174" height="50" as="alternateBounds" />
          </mxGeometry>
        </mxCell>
        <mxCell id="UJGFXo48ONYX7lxH1EYi-20" value="voto_studente" style="shape=partialRectangle;html=1;whiteSpace=wrap;connectable=0;strokeColor=inherit;overflow=hidden;fillColor=none;top=0;left=0;bottom=0;right=0;pointerEvents=1;fontSize=18;" vertex="1" parent="UJGFXo48ONYX7lxH1EYi-14">
          <mxGeometry x="752" width="174" height="50" as="geometry">
            <mxRectangle width="174" height="50" as="alternateBounds" />
          </mxGeometry>
        </mxCell>
        <mxCell id="UJGFXo48ONYX7lxH1EYi-29" value="Dipartimenti" style="shape=table;startSize=40;container=1;collapsible=0;childLayout=tableLayout;strokeColor=default;fontSize=18;rounded=1;" vertex="1" parent="1">
          <mxGeometry x="-440" y="450" width="310" height="99.99999999999989" as="geometry" />
        </mxCell>
        <mxCell id="UJGFXo48ONYX7lxH1EYi-30" value="" style="shape=tableRow;horizontal=0;startSize=0;swimlaneHead=0;swimlaneBody=0;strokeColor=inherit;top=0;left=0;bottom=0;right=0;collapsible=0;dropTarget=0;fillColor=none;points=[[0,0.5],[1,0.5]];portConstraint=eastwest;fontSize=18;" vertex="1" parent="UJGFXo48ONYX7lxH1EYi-29">
          <mxGeometry y="40" width="310" height="60" as="geometry" />
        </mxCell>
        <mxCell id="UJGFXo48ONYX7lxH1EYi-31" value="id" style="shape=partialRectangle;html=1;whiteSpace=wrap;connectable=1;strokeColor=inherit;overflow=hidden;fillColor=none;top=0;left=0;bottom=0;right=0;pointerEvents=1;fontSize=18;movable=1;resizable=1;rotatable=1;deletable=1;editable=1;locked=0;" vertex="1" parent="UJGFXo48ONYX7lxH1EYi-30">
          <mxGeometry width="75" height="60" as="geometry">
            <mxRectangle width="75" height="60" as="alternateBounds" />
          </mxGeometry>
        </mxCell>
        <mxCell id="UJGFXo48ONYX7lxH1EYi-32" value="nome_dipartimento" style="shape=partialRectangle;html=1;whiteSpace=wrap;connectable=0;strokeColor=inherit;overflow=hidden;fillColor=none;top=0;left=0;bottom=0;right=0;pointerEvents=1;fontSize=18;" vertex="1" parent="UJGFXo48ONYX7lxH1EYi-30">
          <mxGeometry x="75" width="235" height="60" as="geometry">
            <mxRectangle width="235" height="60" as="alternateBounds" />
          </mxGeometry>
        </mxCell>
        <mxCell id="UJGFXo48ONYX7lxH1EYi-33" value="Appelli_esami" style="shape=table;startSize=40;container=1;collapsible=0;childLayout=tableLayout;strokeColor=default;fontSize=18;rounded=1;" vertex="1" parent="1">
          <mxGeometry x="-1990" y="760" width="900" height="90" as="geometry" />
        </mxCell>
        <mxCell id="UJGFXo48ONYX7lxH1EYi-34" value="" style="shape=tableRow;horizontal=0;startSize=0;swimlaneHead=0;swimlaneBody=0;strokeColor=inherit;top=0;left=0;bottom=0;right=0;collapsible=0;dropTarget=0;fillColor=none;points=[[0,0.5],[1,0.5]];portConstraint=eastwest;fontSize=18;" vertex="1" parent="UJGFXo48ONYX7lxH1EYi-33">
          <mxGeometry y="40" width="900" height="50" as="geometry" />
        </mxCell>
        <mxCell id="UJGFXo48ONYX7lxH1EYi-35" value="id" style="shape=partialRectangle;html=1;whiteSpace=wrap;connectable=1;strokeColor=inherit;overflow=hidden;fillColor=none;top=0;left=0;bottom=0;right=0;pointerEvents=1;fontSize=18;movable=1;resizable=1;rotatable=1;deletable=1;editable=1;locked=0;" vertex="1" parent="UJGFXo48ONYX7lxH1EYi-34">
          <mxGeometry width="75" height="50" as="geometry">
            <mxRectangle width="75" height="50" as="alternateBounds" />
          </mxGeometry>
        </mxCell>
        <mxCell id="UJGFXo48ONYX7lxH1EYi-36" value="numero_appello" style="shape=partialRectangle;html=1;whiteSpace=wrap;connectable=0;strokeColor=inherit;overflow=hidden;fillColor=none;top=0;left=0;bottom=0;right=0;pointerEvents=1;fontSize=18;" vertex="1" parent="UJGFXo48ONYX7lxH1EYi-34">
          <mxGeometry x="75" width="232" height="50" as="geometry">
            <mxRectangle width="232" height="50" as="alternateBounds" />
          </mxGeometry>
        </mxCell>
        <mxCell id="UJGFXo48ONYX7lxH1EYi-37" value="data_appello" style="shape=partialRectangle;html=1;whiteSpace=wrap;connectable=0;strokeColor=inherit;overflow=hidden;fillColor=none;top=0;left=0;bottom=0;right=0;pointerEvents=1;fontSize=18;" vertex="1" parent="UJGFXo48ONYX7lxH1EYi-34">
          <mxGeometry x="307" width="233" height="50" as="geometry">
            <mxRectangle width="233" height="50" as="alternateBounds" />
          </mxGeometry>
        </mxCell>
        <mxCell id="UJGFXo48ONYX7lxH1EYi-38" value="id_corso" style="shape=partialRectangle;html=1;whiteSpace=wrap;connectable=0;strokeColor=inherit;overflow=hidden;fillColor=none;top=0;left=0;bottom=0;right=0;pointerEvents=1;fontSize=18;" vertex="1" parent="UJGFXo48ONYX7lxH1EYi-34">
          <mxGeometry x="540" width="130" height="50" as="geometry">
            <mxRectangle width="130" height="50" as="alternateBounds" />
          </mxGeometry>
        </mxCell>
        <mxCell id="UJGFXo48ONYX7lxH1EYi-39" value="id_studente" style="shape=partialRectangle;html=1;whiteSpace=wrap;connectable=0;strokeColor=inherit;overflow=hidden;fillColor=none;top=0;left=0;bottom=0;right=0;pointerEvents=1;fontSize=18;" vertex="1" parent="UJGFXo48ONYX7lxH1EYi-34">
          <mxGeometry x="670" width="230" height="50" as="geometry">
            <mxRectangle width="230" height="50" as="alternateBounds" />
          </mxGeometry>
        </mxCell>
        <mxCell id="UJGFXo48ONYX7lxH1EYi-76" value="Corso_di_laurea" style="shape=table;startSize=40;container=1;collapsible=0;childLayout=tableLayout;strokeColor=default;fontSize=18;rounded=1;" vertex="1" parent="1">
          <mxGeometry x="-1451" y="500" width="404" height="90" as="geometry" />
        </mxCell>
        <mxCell id="UJGFXo48ONYX7lxH1EYi-77" value="" style="shape=tableRow;horizontal=0;startSize=0;swimlaneHead=0;swimlaneBody=0;strokeColor=inherit;top=0;left=0;bottom=0;right=0;collapsible=0;dropTarget=0;fillColor=none;points=[[0,0.5],[1,0.5]];portConstraint=eastwest;fontSize=18;" vertex="1" parent="UJGFXo48ONYX7lxH1EYi-76">
          <mxGeometry y="40" width="404" height="50" as="geometry" />
        </mxCell>
        <mxCell id="UJGFXo48ONYX7lxH1EYi-78" value="id" style="shape=partialRectangle;html=1;whiteSpace=wrap;connectable=1;strokeColor=inherit;overflow=hidden;fillColor=none;top=0;left=0;bottom=0;right=0;pointerEvents=1;fontSize=18;movable=1;resizable=1;rotatable=1;deletable=1;editable=1;locked=0;" vertex="1" parent="UJGFXo48ONYX7lxH1EYi-77">
          <mxGeometry width="56" height="50" as="geometry">
            <mxRectangle width="56" height="50" as="alternateBounds" />
          </mxGeometry>
        </mxCell>
        <mxCell id="UJGFXo48ONYX7lxH1EYi-79" value="nome_corso" style="shape=partialRectangle;html=1;whiteSpace=wrap;connectable=0;strokeColor=inherit;overflow=hidden;fillColor=none;top=0;left=0;bottom=0;right=0;pointerEvents=1;fontSize=18;" vertex="1" parent="UJGFXo48ONYX7lxH1EYi-77">
          <mxGeometry x="56" width="174" height="50" as="geometry">
            <mxRectangle width="174" height="50" as="alternateBounds" />
          </mxGeometry>
        </mxCell>
        <mxCell id="UJGFXo48ONYX7lxH1EYi-80" value="id_dipartimento" style="shape=partialRectangle;html=1;whiteSpace=wrap;connectable=0;strokeColor=inherit;overflow=hidden;fillColor=none;top=0;left=0;bottom=0;right=0;pointerEvents=1;fontSize=18;" vertex="1" parent="UJGFXo48ONYX7lxH1EYi-77">
          <mxGeometry x="230" width="174" height="50" as="geometry">
            <mxRectangle width="174" height="50" as="alternateBounds" />
          </mxGeometry>
        </mxCell>
        <mxCell id="UJGFXo48ONYX7lxH1EYi-81" value="Insegnanti" style="shape=table;startSize=40;container=1;collapsible=0;childLayout=tableLayout;strokeColor=default;fontSize=18;rounded=1;" vertex="1" parent="1">
          <mxGeometry x="-920" y="730" width="230" height="90" as="geometry" />
        </mxCell>
        <mxCell id="UJGFXo48ONYX7lxH1EYi-82" value="" style="shape=tableRow;horizontal=0;startSize=0;swimlaneHead=0;swimlaneBody=0;strokeColor=inherit;top=0;left=0;bottom=0;right=0;collapsible=0;dropTarget=0;fillColor=none;points=[[0,0.5],[1,0.5]];portConstraint=eastwest;fontSize=18;" vertex="1" parent="UJGFXo48ONYX7lxH1EYi-81">
          <mxGeometry y="40" width="230" height="50" as="geometry" />
        </mxCell>
        <mxCell id="UJGFXo48ONYX7lxH1EYi-83" value="id" style="shape=partialRectangle;html=1;whiteSpace=wrap;connectable=1;strokeColor=inherit;overflow=hidden;fillColor=none;top=0;left=0;bottom=0;right=0;pointerEvents=1;fontSize=18;movable=1;resizable=1;rotatable=1;deletable=1;editable=1;locked=0;" vertex="1" parent="UJGFXo48ONYX7lxH1EYi-82">
          <mxGeometry width="55" height="50" as="geometry">
            <mxRectangle width="55" height="50" as="alternateBounds" />
          </mxGeometry>
        </mxCell>
        <mxCell id="UJGFXo48ONYX7lxH1EYi-84" value="nome_corso" style="shape=partialRectangle;html=1;whiteSpace=wrap;connectable=0;strokeColor=inherit;overflow=hidden;fillColor=none;top=0;left=0;bottom=0;right=0;pointerEvents=1;fontSize=18;" vertex="1" parent="UJGFXo48ONYX7lxH1EYi-82">
          <mxGeometry x="55" width="175" height="50" as="geometry">
            <mxRectangle width="175" height="50" as="alternateBounds" />
          </mxGeometry>
        </mxCell>
        <mxCell id="UJGFXo48ONYX7lxH1EYi-89" value="Corsi" style="shape=table;startSize=40;container=1;collapsible=0;childLayout=tableLayout;strokeColor=default;fontSize=18;rounded=1;" vertex="1" parent="1">
          <mxGeometry x="-380" y="680" width="760" height="90" as="geometry" />
        </mxCell>
        <mxCell id="UJGFXo48ONYX7lxH1EYi-90" value="" style="shape=tableRow;horizontal=0;startSize=0;swimlaneHead=0;swimlaneBody=0;strokeColor=inherit;top=0;left=0;bottom=0;right=0;collapsible=0;dropTarget=0;fillColor=none;points=[[0,0.5],[1,0.5]];portConstraint=eastwest;fontSize=18;" vertex="1" parent="UJGFXo48ONYX7lxH1EYi-89">
          <mxGeometry y="40" width="760" height="50" as="geometry" />
        </mxCell>
        <mxCell id="UJGFXo48ONYX7lxH1EYi-91" value="id" style="shape=partialRectangle;html=1;whiteSpace=wrap;connectable=1;strokeColor=inherit;overflow=hidden;fillColor=none;top=0;left=0;bottom=0;right=0;pointerEvents=1;fontSize=18;movable=1;resizable=1;rotatable=1;deletable=1;editable=1;locked=0;" vertex="1" parent="UJGFXo48ONYX7lxH1EYi-90">
          <mxGeometry width="57" height="50" as="geometry">
            <mxRectangle width="57" height="50" as="alternateBounds" />
          </mxGeometry>
        </mxCell>
        <mxCell id="UJGFXo48ONYX7lxH1EYi-92" value="nome_corso" style="shape=partialRectangle;html=1;whiteSpace=wrap;connectable=0;strokeColor=inherit;overflow=hidden;fillColor=none;top=0;left=0;bottom=0;right=0;pointerEvents=1;fontSize=18;" vertex="1" parent="UJGFXo48ONYX7lxH1EYi-90">
          <mxGeometry x="57" width="175" height="50" as="geometry">
            <mxRectangle width="175" height="50" as="alternateBounds" />
          </mxGeometry>
        </mxCell>
        <mxCell id="UJGFXo48ONYX7lxH1EYi-93" value="id_corso" style="shape=partialRectangle;html=1;whiteSpace=wrap;connectable=0;strokeColor=inherit;overflow=hidden;fillColor=none;top=0;left=0;bottom=0;right=0;pointerEvents=1;fontSize=18;" vertex="1" parent="UJGFXo48ONYX7lxH1EYi-90">
          <mxGeometry x="232" width="176" height="50" as="geometry">
            <mxRectangle width="176" height="50" as="alternateBounds" />
          </mxGeometry>
        </mxCell>
        <mxCell id="UJGFXo48ONYX7lxH1EYi-94" value="id_insegnante" style="shape=partialRectangle;html=1;whiteSpace=wrap;connectable=0;strokeColor=inherit;overflow=hidden;fillColor=none;top=0;left=0;bottom=0;right=0;pointerEvents=1;fontSize=18;" vertex="1" parent="UJGFXo48ONYX7lxH1EYi-90">
          <mxGeometry x="408" width="176" height="50" as="geometry">
            <mxRectangle width="176" height="50" as="alternateBounds" />
          </mxGeometry>
        </mxCell>
        <mxCell id="UJGFXo48ONYX7lxH1EYi-95" value="id_studente" style="shape=partialRectangle;html=1;whiteSpace=wrap;connectable=0;strokeColor=inherit;overflow=hidden;fillColor=none;top=0;left=0;bottom=0;right=0;pointerEvents=1;fontSize=18;" vertex="1" parent="UJGFXo48ONYX7lxH1EYi-90">
          <mxGeometry x="584" width="176" height="50" as="geometry">
            <mxRectangle width="176" height="50" as="alternateBounds" />
          </mxGeometry>
        </mxCell>
        <mxCell id="UJGFXo48ONYX7lxH1EYi-99" value="" style="rhombus;whiteSpace=wrap;html=1;" vertex="1" parent="1">
          <mxGeometry x="-920" y="390" width="80" height="80" as="geometry" />
        </mxCell>
        <mxCell id="UJGFXo48ONYX7lxH1EYi-106" value="" style="edgeStyle=orthogonalEdgeStyle;rounded=0;orthogonalLoop=1;jettySize=auto;html=1;" edge="1" parent="1" source="UJGFXo48ONYX7lxH1EYi-13" target="UJGFXo48ONYX7lxH1EYi-101">
          <mxGeometry relative="1" as="geometry">
            <mxPoint x="-1380" y="750" as="targetPoint" />
            <mxPoint x="-1127" y="140" as="sourcePoint" />
            <Array as="points" />
          </mxGeometry>
        </mxCell>
        <mxCell id="UJGFXo48ONYX7lxH1EYi-107" style="edgeStyle=orthogonalEdgeStyle;rounded=0;orthogonalLoop=1;jettySize=auto;html=1;" edge="1" parent="1" source="UJGFXo48ONYX7lxH1EYi-101">
          <mxGeometry relative="1" as="geometry">
            <mxPoint x="-1380" y="750" as="targetPoint" />
            <Array as="points">
              <mxPoint x="-1570" y="370" />
              <mxPoint x="-1570" y="700" />
              <mxPoint x="-1380" y="700" />
            </Array>
          </mxGeometry>
        </mxCell>
        <mxCell id="UJGFXo48ONYX7lxH1EYi-101" value="" style="rhombus;whiteSpace=wrap;html=1;" vertex="1" parent="1">
          <mxGeometry x="-1410" y="330" width="80" height="80" as="geometry" />
        </mxCell>
        <mxCell id="UJGFXo48ONYX7lxH1EYi-146" style="edgeStyle=orthogonalEdgeStyle;rounded=0;orthogonalLoop=1;jettySize=auto;html=1;" edge="1" parent="1" source="UJGFXo48ONYX7lxH1EYi-109" target="UJGFXo48ONYX7lxH1EYi-76">
          <mxGeometry relative="1" as="geometry">
            <Array as="points">
              <mxPoint x="-550" y="480" />
              <mxPoint x="-1249" y="480" />
            </Array>
          </mxGeometry>
        </mxCell>
        <mxCell id="UJGFXo48ONYX7lxH1EYi-109" value="" style="rhombus;whiteSpace=wrap;html=1;" vertex="1" parent="1">
          <mxGeometry x="-590" y="350" width="80" height="80" as="geometry" />
        </mxCell>
        <mxCell id="UJGFXo48ONYX7lxH1EYi-145" style="edgeStyle=orthogonalEdgeStyle;rounded=0;orthogonalLoop=1;jettySize=auto;html=1;exitX=1;exitY=0.5;exitDx=0;exitDy=0;entryX=0.5;entryY=0;entryDx=0;entryDy=0;" edge="1" parent="1" source="UJGFXo48ONYX7lxH1EYi-30" target="UJGFXo48ONYX7lxH1EYi-109">
          <mxGeometry relative="1" as="geometry" />
        </mxCell>
        <mxCell id="UJGFXo48ONYX7lxH1EYi-147" style="edgeStyle=orthogonalEdgeStyle;rounded=0;orthogonalLoop=1;jettySize=auto;html=1;entryX=0;entryY=0.5;entryDx=0;entryDy=0;" edge="1" parent="1" source="UJGFXo48ONYX7lxH1EYi-14" target="UJGFXo48ONYX7lxH1EYi-78">
          <mxGeometry relative="1" as="geometry">
            <Array as="points">
              <mxPoint x="-730" y="290" />
              <mxPoint x="-1610" y="290" />
              <mxPoint x="-1610" y="565" />
            </Array>
          </mxGeometry>
        </mxCell>
        <mxCell id="UJGFXo48ONYX7lxH1EYi-148" value="" style="rhombus;whiteSpace=wrap;html=1;" vertex="1" parent="1">
          <mxGeometry x="-1010" y="250" width="80" height="80" as="geometry" />
        </mxCell>
        <mxCell id="UJGFXo48ONYX7lxH1EYi-153" style="edgeStyle=orthogonalEdgeStyle;rounded=0;orthogonalLoop=1;jettySize=auto;html=1;exitX=0.5;exitY=1;exitDx=0;exitDy=0;entryX=0.5;entryY=0;entryDx=0;entryDy=0;" edge="1" parent="1" source="UJGFXo48ONYX7lxH1EYi-150" target="UJGFXo48ONYX7lxH1EYi-89">
          <mxGeometry relative="1" as="geometry">
            <Array as="points">
              <mxPoint x="-500" y="940" />
              <mxPoint x="-420" y="940" />
              <mxPoint x="-420" y="620" />
              <mxPoint y="620" />
            </Array>
          </mxGeometry>
        </mxCell>
        <mxCell id="UJGFXo48ONYX7lxH1EYi-150" value="" style="rhombus;whiteSpace=wrap;html=1;" vertex="1" parent="1">
          <mxGeometry x="-540" y="840" width="80" height="80" as="geometry" />
        </mxCell>
        <mxCell id="UJGFXo48ONYX7lxH1EYi-151" style="edgeStyle=orthogonalEdgeStyle;rounded=0;orthogonalLoop=1;jettySize=auto;html=1;entryX=0.5;entryY=0;entryDx=0;entryDy=0;" edge="1" parent="1" source="UJGFXo48ONYX7lxH1EYi-77" target="UJGFXo48ONYX7lxH1EYi-150">
          <mxGeometry relative="1" as="geometry">
            <Array as="points">
              <mxPoint x="-1290" y="690" />
              <mxPoint x="-500" y="690" />
            </Array>
          </mxGeometry>
        </mxCell>
        <mxCell id="UJGFXo48ONYX7lxH1EYi-152" style="edgeStyle=orthogonalEdgeStyle;rounded=0;orthogonalLoop=1;jettySize=auto;html=1;exitX=0;exitY=0.5;exitDx=0;exitDy=0;entryX=0;entryY=0.5;entryDx=0;entryDy=0;" edge="1" parent="1" source="UJGFXo48ONYX7lxH1EYi-83" target="UJGFXo48ONYX7lxH1EYi-150">
          <mxGeometry relative="1" as="geometry" />
        </mxCell>
        <mxCell id="UJGFXo48ONYX7lxH1EYi-154" value="*" style="text;html=1;align=center;verticalAlign=middle;resizable=0;points=[];autosize=1;strokeColor=none;fillColor=none;fontStyle=1;fontSize=20;fontColor=#F01818;" vertex="1" parent="1">
          <mxGeometry x="-1440" y="345" width="30" height="40" as="geometry" />
        </mxCell>
        <mxCell id="UJGFXo48ONYX7lxH1EYi-156" value="*" style="text;html=1;align=center;verticalAlign=middle;resizable=0;points=[];autosize=1;strokeColor=none;fillColor=none;fontStyle=1;fontSize=20;fontColor=#F01818;" vertex="1" parent="1">
          <mxGeometry x="-1370" y="240" width="30" height="40" as="geometry" />
        </mxCell>
        <mxCell id="UJGFXo48ONYX7lxH1EYi-162" style="edgeStyle=orthogonalEdgeStyle;rounded=0;orthogonalLoop=1;jettySize=auto;html=1;" edge="1" parent="1" source="UJGFXo48ONYX7lxH1EYi-158">
          <mxGeometry relative="1" as="geometry">
            <mxPoint x="-350" y="780" as="targetPoint" />
          </mxGeometry>
        </mxCell>
        <mxCell id="UJGFXo48ONYX7lxH1EYi-158" value="" style="rhombus;whiteSpace=wrap;html=1;" vertex="1" parent="1">
          <mxGeometry x="-845" y="999" width="80" height="80" as="geometry" />
        </mxCell>
        <mxCell id="UJGFXo48ONYX7lxH1EYi-161" style="edgeStyle=orthogonalEdgeStyle;rounded=0;orthogonalLoop=1;jettySize=auto;html=1;entryX=0;entryY=0.5;entryDx=0;entryDy=0;" edge="1" parent="1" source="UJGFXo48ONYX7lxH1EYi-34" target="UJGFXo48ONYX7lxH1EYi-158">
          <mxGeometry relative="1" as="geometry">
            <Array as="points">
              <mxPoint x="-1200" y="920" />
              <mxPoint x="-968" y="920" />
              <mxPoint x="-968" y="1039" />
            </Array>
          </mxGeometry>
        </mxCell>
        <mxCell id="UJGFXo48ONYX7lxH1EYi-163" value="*" style="text;html=1;align=center;verticalAlign=middle;resizable=0;points=[];autosize=1;strokeColor=none;fillColor=none;fontStyle=1;fontSize=20;fontColor=#F01818;" vertex="1" parent="1">
          <mxGeometry x="-890" y="1040" width="30" height="40" as="geometry" />
        </mxCell>
        <mxCell id="UJGFXo48ONYX7lxH1EYi-164" value="1" style="text;html=1;align=center;verticalAlign=middle;resizable=0;points=[];autosize=1;strokeColor=none;fillColor=none;fontStyle=1;fontSize=20;fontColor=#F01818;" vertex="1" parent="1">
          <mxGeometry x="-740" y="1040" width="30" height="40" as="geometry" />
        </mxCell>
        <mxCell id="UJGFXo48ONYX7lxH1EYi-165" value="*" style="text;html=1;align=center;verticalAlign=middle;resizable=0;points=[];autosize=1;strokeColor=none;fillColor=none;fontStyle=1;fontSize=20;fontColor=#F01818;" vertex="1" parent="1">
          <mxGeometry x="-920" y="260" width="30" height="40" as="geometry" />
        </mxCell>
        <mxCell id="UJGFXo48ONYX7lxH1EYi-166" value="1" style="text;html=1;align=center;verticalAlign=middle;resizable=0;points=[];autosize=1;strokeColor=none;fillColor=none;fontStyle=1;fontSize=20;fontColor=#F01818;" vertex="1" parent="1">
          <mxGeometry x="-1047" y="260" width="30" height="40" as="geometry" />
        </mxCell>
        <mxCell id="UJGFXo48ONYX7lxH1EYi-167" value="1" style="text;html=1;align=center;verticalAlign=middle;resizable=0;points=[];autosize=1;strokeColor=none;fillColor=none;fontStyle=1;fontSize=20;fontColor=#F01818;" vertex="1" parent="1">
          <mxGeometry x="-550" y="290" width="30" height="40" as="geometry" />
        </mxCell>
        <mxCell id="UJGFXo48ONYX7lxH1EYi-168" value="*" style="text;html=1;align=center;verticalAlign=middle;resizable=0;points=[];autosize=1;strokeColor=none;fillColor=none;fontStyle=1;fontSize=20;fontColor=#F01818;" vertex="1" parent="1">
          <mxGeometry x="-550" y="440" width="30" height="40" as="geometry" />
        </mxCell>
        <mxCell id="UJGFXo48ONYX7lxH1EYi-171" value="*" style="text;html=1;align=center;verticalAlign=middle;resizable=0;points=[];autosize=1;strokeColor=none;fillColor=none;fontStyle=1;fontSize=20;fontColor=#F01818;" vertex="1" parent="1">
          <mxGeometry x="-880" y="350" width="30" height="40" as="geometry" />
        </mxCell>
        <mxCell id="UJGFXo48ONYX7lxH1EYi-172" value="1" style="text;html=1;align=center;verticalAlign=middle;resizable=0;points=[];autosize=1;strokeColor=none;fillColor=none;fontStyle=1;fontSize=20;fontColor=#F01818;" vertex="1" parent="1">
          <mxGeometry x="-880" y="500" width="30" height="40" as="geometry" />
        </mxCell>
        <mxCell id="UJGFXo48ONYX7lxH1EYi-173" value="*" style="text;html=1;align=center;verticalAlign=middle;resizable=0;points=[];autosize=1;strokeColor=none;fillColor=none;fontStyle=1;fontSize=20;fontColor=#F01818;" vertex="1" parent="1">
          <mxGeometry x="-530" y="770" width="30" height="40" as="geometry" />
        </mxCell>
        <mxCell id="UJGFXo48ONYX7lxH1EYi-174" value="*" style="text;html=1;align=center;verticalAlign=middle;resizable=0;points=[];autosize=1;strokeColor=none;fillColor=none;fontStyle=1;fontSize=20;fontColor=#F01818;" vertex="1" parent="1">
          <mxGeometry x="-580" y="880" width="30" height="40" as="geometry" />
        </mxCell>
        <mxCell id="UJGFXo48ONYX7lxH1EYi-175" value="*" style="text;html=1;align=center;verticalAlign=middle;resizable=0;points=[];autosize=1;strokeColor=none;fillColor=none;fontStyle=1;fontSize=20;fontColor=#F01818;" vertex="1" parent="1">
          <mxGeometry x="-420" y="810" width="30" height="40" as="geometry" />
        </mxCell>
      </root>
    </mxGraphModel>
  </diagram>
</mxfile>
